<svg width="25" height="25" viewBox="0 0 25 25" fill="none" xmlns="http://www.w3.org/2000/svg">
<circle cx="12.5" cy="12.5" r="12.5" fill="black"/>
<path d="M8.91675 9.20817C8.91675 8.66669 9.13185 8.14738 9.51474 7.76449C9.89763 7.38161 10.4169 7.1665 10.9584 7.1665H13.0001V11.2498H10.9584C10.4169 11.2498 9.89763 11.0347 9.51474 10.6518C9.13185 10.269 8.91675 9.74965 8.91675 9.20817Z" stroke="white" stroke-width="1.16667" stroke-linecap="round" stroke-linejoin="round"/>
<path d="M13 7.1665H15.0417C15.3098 7.1665 15.5753 7.21931 15.823 7.32192C16.0707 7.42452 16.2958 7.57491 16.4853 7.76449C16.6749 7.95408 16.8253 8.17915 16.9279 8.42686C17.0305 8.67456 17.0833 8.94006 17.0833 9.20817C17.0833 9.47629 17.0305 9.74178 16.9279 9.98948C16.8253 10.2372 16.6749 10.4623 16.4853 10.6518C16.2958 10.8414 16.0707 10.9918 15.823 11.0944C15.5753 11.197 15.3098 11.2498 15.0417 11.2498H13V7.1665Z" stroke="white" stroke-width="1.16667" stroke-linecap="round" stroke-linejoin="round"/>
<path d="M13 13.2917C13 13.0236 13.0528 12.7581 13.1554 12.5104C13.258 12.2626 13.4084 12.0376 13.598 11.848C13.7876 11.6584 14.0126 11.508 14.2604 11.4054C14.5081 11.3028 14.7736 11.25 15.0417 11.25C15.3098 11.25 15.5753 11.3028 15.823 11.4054C16.0707 11.508 16.2958 11.6584 16.4853 11.848C16.6749 12.0376 16.8253 12.2626 16.9279 12.5104C17.0305 12.7581 17.0833 13.0236 17.0833 13.2917C17.0833 13.5598 17.0305 13.8253 16.9279 14.073C16.8253 14.3207 16.6749 14.5458 16.4853 14.7353C16.2958 14.9249 16.0707 15.0753 15.823 15.1779C15.5753 15.2805 15.3098 15.3333 15.0417 15.3333C14.7736 15.3333 14.5081 15.2805 14.2604 15.1779C14.0126 15.0753 13.7876 14.9249 13.598 14.7353C13.4084 14.5458 13.258 14.3207 13.1554 14.073C13.0528 13.8253 13 13.5598 13 13.2917Z" stroke="white" stroke-width="1.16667" stroke-linecap="round" stroke-linejoin="round"/>
<path d="M8.91675 17.3752C8.91675 16.8337 9.13185 16.3144 9.51474 15.9315C9.89763 15.5486 10.4169 15.3335 10.9584 15.3335H13.0001V17.3752C13.0001 17.9166 12.785 18.436 12.4021 18.8188C12.0192 19.2017 11.4999 19.4168 10.9584 19.4168C10.4169 19.4168 9.89763 19.2017 9.51474 18.8188C9.13185 18.436 8.91675 17.9166 8.91675 17.3752Z" stroke="white" stroke-width="1.16667" stroke-linecap="round" stroke-linejoin="round"/>
<path d="M8.91675 13.2917C8.91675 12.7502 9.13185 12.2309 9.51474 11.848C9.89763 11.4651 10.4169 11.25 10.9584 11.25H13.0001V15.3333H10.9584C10.4169 15.3333 9.89763 15.1182 9.51474 14.7353C9.13185 14.3525 8.91675 13.8332 8.91675 13.2917Z" stroke="white" stroke-width="1.16667" stroke-linecap="round" stroke-linejoin="round"/>
</svg>
