<svg width="25" height="25" viewBox="0 0 25 25" fill="none" xmlns="http://www.w3.org/2000/svg">
<circle cx="12.5" cy="12.5" r="12.5" fill="black"/>
<path d="M19.1483 9.74516C19.079 9.46832 18.9379 9.21466 18.7392 9.00982C18.5405 8.80497 18.2913 8.65619 18.0167 8.5785C17.0133 8.3335 13 8.3335 13 8.3335C13 8.3335 8.98667 8.3335 7.98334 8.60183C7.70874 8.67952 7.45949 8.8283 7.26079 9.03315C7.06209 9.238 6.92097 9.49165 6.85167 9.7685C6.66805 10.7867 6.57823 11.8197 6.58334 12.8543C6.5768 13.8968 6.66662 14.9376 6.85167 15.9635C6.92807 16.2317 7.07235 16.4757 7.27059 16.6719C7.46883 16.8681 7.71432 17.0099 7.98334 17.0835C8.98667 17.3518 13 17.3518 13 17.3518C13 17.3518 17.0133 17.3518 18.0167 17.0835C18.2913 17.0058 18.5405 16.857 18.7392 16.6522C18.9379 16.4473 19.079 16.1937 19.1483 15.9168C19.3306 14.9063 19.4204 13.8812 19.4167 12.8543C19.4232 11.8119 19.3334 10.7711 19.1483 9.74516Z" stroke="white" stroke-width="1.16667" stroke-linecap="round" stroke-linejoin="round"/>
<path d="M11.6875 14.7618L15.0417 12.8543L11.6875 10.9468V14.7618Z" stroke="#FF0000" stroke-width="1.16667" stroke-linecap="round" stroke-linejoin="round"/>
</svg>
