<svg width="25" height="25" viewBox="0 0 25 25" fill="none" xmlns="http://www.w3.org/2000/svg">
<circle cx="12.5" cy="12.5" r="12.5" fill="black"/>
<g clip-path="url(#clip0_81_273)">
<path d="M14.9167 7.1665H9.08342C7.47258 7.1665 6.16675 8.47234 6.16675 10.0832V15.9165C6.16675 17.5273 7.47258 18.8332 9.08342 18.8332H14.9167C16.5276 18.8332 17.8334 17.5273 17.8334 15.9165V10.0832C17.8334 8.47234 16.5276 7.1665 14.9167 7.1665Z" stroke="white" stroke-width="1.16667" stroke-linecap="round" stroke-linejoin="round"/>
<path d="M14.3333 12.6327C14.4053 13.1182 14.3224 13.614 14.0964 14.0496C13.8703 14.4852 13.5127 14.8385 13.0743 15.0592C12.6359 15.2798 12.1391 15.3566 11.6545 15.2786C11.17 15.2007 10.7224 14.9719 10.3753 14.6249C10.0283 14.2778 9.7995 13.8302 9.72153 13.3456C9.64356 12.8611 9.72036 12.3643 9.94102 11.9259C10.1617 11.4875 10.5149 11.1299 10.9506 10.9038C11.3862 10.6778 11.882 10.5949 12.3675 10.6668C12.8627 10.7403 13.3212 10.971 13.6751 11.325C14.0291 11.679 14.2599 12.1375 14.3333 12.6327Z" stroke="white" stroke-width="1.16667" stroke-linecap="round" stroke-linejoin="round"/>
<path d="M15.2083 9.7915H15.2141" stroke="white" stroke-width="1.16667" stroke-linecap="round" stroke-linejoin="round"/>
</g>
<defs>
<clipPath id="clip0_81_273">
<rect width="14" height="14" fill="white" transform="translate(5 6)"/>
</clipPath>
</defs>
</svg>
