<svg width="25" height="25" viewBox="0 0 25 25" fill="none" xmlns="http://www.w3.org/2000/svg">
<circle cx="12.5" cy="12.5" r="12.5" fill="black"/>
<path d="M11.0833 16.5156C8.16667 17.3906 8.16667 15.0573 7 14.7656M15.1667 18.2656V16.0081C15.1885 15.73 15.151 15.4503 15.0564 15.1878C14.9619 14.9253 14.8125 14.686 14.6183 14.4856C16.45 14.2815 18.375 13.5873 18.375 10.4023C18.3748 9.58786 18.0616 8.80466 17.5 8.2148C17.7659 7.50226 17.7471 6.71467 17.4475 6.01563C17.4475 6.01563 16.7592 5.81146 15.1667 6.87896C13.8297 6.51661 12.4203 6.51661 11.0833 6.87896C9.49083 5.81146 8.8025 6.01563 8.8025 6.01563C8.50289 6.71467 8.48408 7.50226 8.75 8.2148C8.18424 8.80904 7.87064 9.59932 7.875 10.4198C7.875 13.5815 9.8 14.2756 11.6317 14.5031C11.4397 14.7014 11.2917 14.9379 11.1973 15.1972C11.1028 15.4565 11.064 15.7328 11.0833 16.0081V18.2656" stroke="white" stroke-width="1.16667" stroke-linecap="round" stroke-linejoin="round"/>
</svg>
